Coordinates
version=1
nRows=22
nColumns=24
inDegrees=yes

Units are S.I. units (second, meters, Newtons, ...)
Angles are in degrees.

endheader
time	pelvis_tilt	pelvis_list	pelvis_rotation	pelvis_tx	pelvis_ty	pelvis_tz	hip_flexion_r	hip_adduction_r	hip_rotation_r	knee_angle_r	ankle_angle_r	subtalar_angle_r	mtp_angle_r	hip_flexion_l	hip_adduction_l	hip_rotation_l	knee_angle_l	ankle_angle_l	subtalar_angle_l	mtp_angle_l	lumbar_extension	lumbar_bending	lumbar_rotation
      1.77933333	      0.70298114	      3.19464749	     -9.19292024	      1.51728256	      1.02287284	      0.27033478	     16.09736780	     -6.66311019	     -0.16443811	    -60.38759442	      7.02953836	    -10.81346334	      0.73577105	     10.81547688	      8.75638314	     -2.51882922	    -20.05613892	     10.91423567	    -11.20389511	     -1.13926349	      1.00467764	     -5.74728653	      5.48129399
      1.78350000	      0.67422803	      3.11450686	     -9.07354221	      1.52197570	      1.02359458	      0.26997020	     16.72264690	     -6.40493242	     -0.07996121	    -59.91514565	      7.25224790	    -10.92673792	      0.71603012	     10.35698205	      8.73031879	     -2.45824616	    -19.68343432	     10.93307332	    -11.08379122	     -1.17179406	      0.95334567	     -5.66342231	      5.42572110
      1.78766667	      0.67594724	      3.00395893	     -8.93189994	      1.52665672	      1.02434167	      0.26961457	     17.27727839	     -6.12081054	     -0.02642755	    -59.37331175	      7.42032128	    -11.06672043	     -0.40859860	      9.88114713	      8.66946428	     -2.41627093	    -19.35701749	     11.06057196	    -10.82788083	     -2.73178807	      0.81496399	     -5.55435347	      5.15565153
      1.79183333	      0.64602424	      2.94870982	     -8.82145178	      1.53132801	      1.02493937	      0.26928833	     17.88847221	     -5.88859058	      0.06913407	    -58.83516526	      7.58612188	    -11.12712464	     -0.40676981	      9.44237225	      8.67035353	     -2.33103531	    -19.00644806	     11.08801646	    -10.72162825	     -2.73177541	      0.76057601	     -5.51973955	      5.10997127
      1.79600000	      0.64629264	      2.82190565	     -8.63756584	      1.53599387	      1.02560523	      0.26888492	     18.39796529	     -5.60367015	      0.06735726	    -58.20043484	      7.70492318	    -11.27439375	     -0.41464112	      8.97414407	      8.60212891	     -2.20911874	    -18.68827935	     11.12714172	    -10.62401828	     -2.73795433	      0.62729706	     -5.37100702	      4.87170719
      1.80016667	      0.63044515	      2.76016784	     -8.49976535	      1.54073264	      1.02612435	      0.26854399	     18.95018133	     -5.38419796	      0.11363882	    -57.58242565	      7.83446485	    -11.33849684	     -0.41838533	      8.52095709	      8.59801757	     -2.11966481	    -18.34959132	     11.17785241	    -10.50979207	     -2.74065989	      0.58360371	     -5.31006801	      4.74926678
      1.80433333	      0.61025077	      2.66174409	     -8.31507445	      1.54537877	      1.02662377	      0.26817795	     19.46972426	     -5.12525101	      0.12901130	    -56.89704362	      7.90066863	    -11.42439003	     -0.43218961	      8.10030982	      8.55466107	     -1.98112555	    -18.07178806	     11.24721054	    -10.40606099	     -2.74846674	      0.45521257	     -5.22090285	      4.47132773
      1.80850000	      0.57724105	      2.58426781	     -8.14324443	      1.55003817	      1.02703650	      0.26782958	     20.00145845	     -4.89256016	      0.14854736	    -56.19583570	      7.98301364	    -11.46274975	     -0.44388253	      7.69649121	      8.53014822	     -1.85394177	    -17.79557207	     11.31107779	    -10.30422969	     -2.75540231	      0.38953623	     -5.15256039	      4.29055223
      1.81266667	      0.55672365	      2.52319427	     -7.96532753	      1.55467201	      1.02740219	      0.26748483	     20.51432852	     -4.68305572	      0.16865616	    -55.47364079	      8.03229476	    -11.49431260	     -0.46441487	      7.28855048	      8.52543744	     -1.70911374	    -17.52192224	     11.38431422	    -10.22214920	     -2.77024752	      0.30142913	     -5.10480296	      4.05241364
      1.81683333	      0.52472605	      2.44449913	     -7.76362464	      1.55932225	      1.02772370	      0.26712396	     21.00785153	     -4.46269505	      0.16113385	    -54.69910054	      8.07779088	    -11.50049367	     -0.48495751	      6.90138737	      8.50010372	     -1.54713636	    -17.28169282	     11.46420217	    -10.15064532	     -2.78517446	      0.22878088	     -5.03800917	      3.84844744
      1.82100000	      0.49944467	      2.37993577	     -7.56399523	      1.56397053	      1.02799561	      0.26677251	     21.48860007	     -4.26157140	      0.16086008	    -53.90707765	      8.11243263	    -11.48272510	     -0.50553581	      6.51117838	      8.49071925	     -1.37220781	    -17.04231017	     11.53765895	    -10.08258836	     -2.80197328	      0.15330502	     -4.98895253	      3.66025351
      1.82516667	      0.44149146	      2.32486215	     -7.33908204	      1.56858001	      1.02816411	      0.26640167	     21.99225031	     -4.07670837	      0.14040059	    -53.08956475	      8.12433487	    -11.45289726	     -0.52676180	      6.16836261	      8.48762786	     -1.16603995	    -16.82078020	     11.61259781	    -10.03959764	     -2.81973424	      0.10853093	     -4.94745071	      3.43760615
      1.82933333	      0.38876512	      2.26171176	     -7.10720448	      1.57319666	      1.02831690	      0.26603231	     22.46963043	     -3.89204795	      0.10739823	    -52.23182643	      8.12371310	    -11.38255384	     -0.53629220	      5.82929380	      8.47372151	     -0.95886943	    -16.62439002	     11.70009376	     -9.98393331	     -2.82600166	      0.06382704	     -4.90035493	      3.33598744
      1.83350000	      0.36161517	      2.19949451	     -6.87338082	      1.57782586	      1.02846965	      0.26567139	     22.90105263	     -3.71438599	      0.08162608	    -51.34446679	      8.08999213	    -11.31600016	     -0.54686902	      5.45825146	      8.46375098	     -0.73224747	    -16.41828432	     11.79014808	     -9.94846446	     -2.83391366	     -0.02009863	     -4.85535969	      3.16351637
      1.83766667	      0.31896209	      2.15294122	     -6.63749410	      1.58242610	      1.02855324	      0.26531018	     23.34058158	     -3.55645452	      0.05592271	    -50.42440880	      8.02877101	    -11.26647304	     -0.56277850	      5.10348818	      8.47100098	     -0.47406802	    -16.20582365	     11.85584662	     -9.97571953	     -2.85574208	     -0.08215983	     -4.83033422	      2.83933826
      1.84183333	      0.26599202	      2.11134993	     -6.37734863	      1.58703795	      1.02856530	      0.26492298	     23.77807828	     -3.41744919	      0.00970583	    -49.49109601	      7.97809706	    -11.15665972	     -0.57307579	      4.77517298	      8.47986616	     -0.20449141	    -16.02894871	     11.95163101	     -9.97458148	     -2.87457053	     -0.12451667	     -4.81160817	      2.65337928
      1.84600000	      0.19998097	      2.08261196	     -6.13788113	      1.59163378	      1.02851143	      0.26457310	     24.22401783	     -3.29119065	     -0.02198817	    -48.54069052	      7.90776561	    -11.00878844	     -0.57773656	      4.46144700	      8.49321134	      0.02516419	    -15.84366637	     12.04666391	     -9.90953380	     -2.87816148	     -0.14075046	     -4.79935079	      2.58805103
      1.85016667	      0.13391984	      2.03249469	     -5.84473863	      1.59617731	      1.02843397	      0.26415895	     24.63915798	     -3.16110286	     -0.09299288	    -47.53995531	      7.79763051	    -10.90461183	     -0.58264587	      4.17664618	      8.48826265	      0.33906687	    -15.72628144	     12.16194126	     -9.93505992	     -2.88914123	     -0.20110033	     -4.77157783	      2.36754474
      1.85433333	      0.08761463	      2.00615967	     -5.58568588	      1.60080397	      1.02835958	      0.26379881	     25.01784369	     -3.05134975	     -0.12612052	    -46.51692636	      7.68603304	    -10.79650496	     -0.58316224	      3.83508755	      8.50991277	      0.64662885	    -15.53288288	     12.22900787	    -10.01178977	     -2.91205368	     -0.25082477	     -4.77299305	      2.03629740
      1.85850000	      0.01627723	      2.00450253	     -5.32772467	      1.60537920	      1.02818409	      0.26344210	     25.43083450	     -2.97628796	     -0.16613485	    -45.49594886	      7.56288421	    -10.60853957	     -0.58462854	      3.54201369	      8.54542849	      0.90981096	    -15.36887392	     12.33294207	     -9.94517161	     -2.91448325	     -0.25698919	     -4.79988869	      1.98096471
      1.86266667	     -0.05875856	      1.96002182	     -5.02322702	      1.60992612	      1.02798862	      0.26302095	     25.80431002	     -2.87521179	     -0.25037353	    -44.41347147	      7.42290997	    -10.47871448	     -0.58072309	      3.27761938	      8.53958753	      1.24421223	    -15.28387271	     12.46613157	     -9.99804102	     -2.92570806	     -0.31681871	     -4.77210226	      1.77406289
      1.86683333	     -0.10899964	      1.94653847	     -4.74744608	      1.61450878	      1.02780098	      0.26265063	     26.14580425	     -2.80121338	     -0.29609328	    -43.31714472	      7.25888141	    -10.37771033	     -0.56168191	      2.95338873	      8.56815120	      1.59496864	    -15.10824841	     12.53596807	    -10.10160357	     -2.95487194	     -0.36646152	     -4.79164084	      1.43998216
